<?xml version="1.0" standalone="no"?>
<!DOCTYPE svg PUBLIC "-//W3C//DTD SVG 20010904//EN"
 "http://www.w3.org/TR/2001/REC-SVG-20010904/DTD/svg10.dtd">
<svg version="1.0" xmlns="http://www.w3.org/2000/svg"
 width="500.000000pt" height="500.000000pt" viewBox="0 0 500.000000 500.000000"
 preserveAspectRatio="xMidYMid meet">

<g transform="translate(0.000000,500.000000) scale(0.100000,-0.100000)"
fill="#000000" stroke="none">
<path d="M2458 3893 c6 -2 18 -2 25 0 6 3 1 5 -13 5 -14 0 -19 -2 -12 -5z"/>
<path d="M2418 3880 c-25 -15 -33 -66 -14 -95 9 -14 21 -25 26 -25 6 0 30 -9
55 -21 48 -23 57 -47 34 -91 -8 -16 -8 -19 1 -13 7 4 18 23 26 42 19 43 3 82
-41 101 -66 28 -80 39 -83 60 -2 13 2 30 8 38 14 16 12 17 -12 4z"/>
<path d="M2514 3876 c8 -6 20 -22 25 -36 9 -24 10 -23 10 10 1 31 -2 35 -25
36 -21 2 -22 0 -10 -10z"/>
<path d="M2155 3871 c17 -3 35 -17 43 -31 l14 -25 -6 25 c-3 14 -6 28 -6 33 0
4 -17 6 -37 6 -37 -1 -37 -2 -8 -8z"/>
<path d="M2050 3860 c-19 -4 -27 -8 -17 -9 9 0 17 -2 17 -4 0 -2 9 -52 20
-112 25 -135 25 -135 -2 -135 -12 0 -19 -2 -16 -5 3 -3 24 -3 46 1 36 6 40 9
33 28 -5 11 -11 42 -15 68 -6 40 -4 47 11 51 15 4 14 5 -3 6 -18 1 -23 9 -28
51 -4 28 -4 55 -1 60 7 11 6 11 -45 0z"/>
<path d="M2626 3760 c-14 -61 -26 -117 -26 -125 0 -8 -6 -15 -12 -16 -15 -1
30 -17 52 -18 11 0 12 2 3 7 -9 6 -6 34 13 117 14 61 27 118 30 128 4 12 0 17
-14 17 -18 0 -24 -16 -46 -110z"/>
<path d="M2763 3836 c9 -10 17 -29 18 -44 1 -25 1 -25 10 7 11 38 12 36 -21
46 -23 7 -23 7 -7 -9z"/>
<path d="M1918 3826 c-17 -7 -24 -16 -19 -22 5 -5 28 -58 50 -118 22 -60 42
-111 44 -112 2 -2 13 -1 26 3 12 3 19 9 13 12 -5 3 -28 57 -52 120 -34 92 -40
115 -29 122 20 13 -1 9 -33 -5z"/>
<path d="M2157 3769 c-3 -12 0 -28 8 -36 13 -12 14 -10 8 19 -8 42 -9 44 -16
17z"/>
<path d="M1774 3774 c-8 -3 3 -44 33 -121 24 -64 42 -122 39 -129 -4 -10 2
-10 23 -3 l29 10 -19 38 c-10 20 -21 51 -25 67 -4 16 -10 34 -14 39 -3 6 -14
31 -24 58 -18 47 -21 50 -42 41z"/>
<path d="M2873 3760 c-42 -25 -63 -68 -63 -129 0 -42 5 -56 28 -79 15 -15 21
-21 15 -12 -32 41 6 175 62 218 23 18 25 22 9 22 -11 0 -33 -9 -51 -20z"/>
<path d="M3008 3746 c12 -16 22 -38 22 -50 1 -20 2 -19 15 4 18 31 19 43 3 37
-7 -2 -24 5 -37 17 l-25 21 22 -29z"/>
<path d="M2700 3740 c-21 -5 -22 -7 -7 -13 9 -3 17 -14 18 -24 0 -13 3 -12 10
6 13 32 9 38 -21 31z"/>
<path d="M1656 3715 c-20 -15 -20 -15 0 -15 11 0 31 -8 44 -17 l24 -17 -23 32
c-12 18 -23 32 -24 32 -1 0 -11 -7 -21 -15z"/>
<path d="M1597 3681 c-34 -22 -46 -34 -30 -29 12 3 135 -186 136 -209 0 -8 6
-9 19 -2 10 5 18 13 18 17 0 4 -29 54 -65 112 -46 77 -61 108 -53 117 13 17 9
15 -25 -6z"/>
<path d="M2380 3690 c0 -8 -3 -26 -7 -40 -6 -21 -4 -23 9 -13 8 7 18 10 21 6
11 -11 8 3 -8 33 -8 16 -15 22 -15 14z"/>
<path d="M3130 3691 c0 -4 -25 -46 -55 -92 -59 -90 -69 -134 -37 -162 17 -16
18 -15 14 18 -4 33 2 45 104 200 12 18 11 22 -6 33 -11 7 -20 8 -20 3z"/>
<path d="M2229 3655 c-16 -33 -16 -35 2 -35 15 0 19 7 19 35 0 19 -1 35 -2 35
-2 -1 -10 -16 -19 -35z"/>
<path d="M1523 3632 c-22 -17 -22 -17 -3 -52 l19 -35 -6 37 c-3 24 -1 44 7 53
16 20 10 19 -17 -3z"/>
<path d="M2760 3643 c0 -6 -12 -23 -27 -38 l-28 -27 24 3 c17 3 27 13 32 33 5
17 6 32 4 35 -3 2 -5 0 -5 -6z"/>
<path d="M2178 3613 c7 -3 16 -2 19 1 4 3 -2 6 -13 5 -11 0 -14 -3 -6 -6z"/>
<path d="M3267 3596 c-4 -10 -1 -13 8 -9 8 3 12 9 9 14 -7 12 -11 11 -17 -5z"/>
<path d="M2964 3541 c-19 -15 -22 -41 -5 -41 8 0 34 50 29 55 -2 2 -12 -4 -24
-14z"/>
<path d="M3360 3530 c0 -6 -39 -51 -87 -101 l-87 -90 29 -27 c16 -15 23 -19
16 -10 -11 14 -6 23 30 63 40 43 43 45 60 29 27 -24 24 -49 -13 -100 l-32 -45
23 -22 c13 -12 21 -16 17 -9 -4 7 3 25 18 42 32 39 40 64 26 89 -10 19 -8 20
12 12 46 -17 97 26 83 70 -7 20 -8 19 -25 -9 -33 -54 -60 -60 -103 -24 -17 15
-15 18 25 59 l42 43 25 -22 c15 -13 8 -4 -14 20 -42 45 -45 47 -45 32z"/>
<path d="M2893 3513 c9 -2 23 -2 30 0 6 3 -1 5 -18 5 -16 0 -22 -2 -12 -5z"/>
<path d="M3130 3410 c-9 -6 -10 -10 -3 -10 6 0 15 5 18 10 8 12 4 12 -15 0z"/>
<path d="M1309 3356 c-8 -16 -18 -22 -35 -20 -13 1 -24 2 -24 1 0 -1 -12 -29
-26 -62 -14 -33 -23 -50 -21 -37 3 12 3 22 1 22 -7 0 -28 -54 -25 -64 1 -5 -4
-13 -11 -17 -9 -6 -13 -39 -13 -118 0 -61 -3 -106 -8 -102 -4 4 -8 46 -9 93 0
49 -6 92 -13 102 -12 15 -13 15 -18 -3 -3 -12 0 -18 7 -15 7 3 12 -12 14 -41
2 -26 -2 -45 -8 -45 -5 0 -10 14 -10 32 0 17 -2 29 -4 27 -13 -14 -25 -254
-12 -266 10 -11 6 -47 -8 -66 -7 -9 -11 -28 -9 -41 3 -13 -2 -38 -11 -55 -17
-31 -33 -43 -23 -16 4 8 2 17 -3 20 -16 10 -13 68 3 59 6 -4 3 3 -8 16 -11 13
-15 21 -9 17 7 -4 10 5 8 28 -1 22 2 35 9 35 8 0 7 4 -2 9 -8 5 -10 14 -6 21
4 7 9 35 11 64 2 33 0 46 -5 37 -7 -11 -10 -9 -14 10 -2 13 -2 -7 0 -46 2 -52
1 -65 -7 -50 -7 14 -9 -19 -7 -115 2 -74 2 -126 -1 -115 -2 11 -8 24 -12 28
-13 14 20 -142 42 -197 11 -28 21 -61 23 -73 3 -20 1 -21 -17 -12 -11 6 -17
17 -14 25 3 8 -1 17 -9 20 -11 5 -12 10 -4 26 9 16 8 19 -2 13 -9 -6 -11 -3
-6 8 4 10 2 16 -6 14 -7 -1 -11 4 -10 11 2 6 -2 12 -7 12 -13 0 -13 -10 5 -60
8 -23 12 -47 8 -53 -4 -6 -1 -7 7 -2 9 6 10 2 5 -15 -5 -17 -4 -21 5 -15 8 5
11 4 6 -3 -8 -13 14 -63 25 -56 5 3 6 -3 2 -12 -4 -10 -2 -15 4 -11 5 3 9 -4
8 -16 -1 -12 16 -51 38 -87 49 -81 54 -92 29 -60 -12 14 -24 21 -28 17 -4 -4
-16 0 -26 10 -10 9 -21 13 -25 10 -3 -4 -1 -7 5 -7 7 0 12 -5 12 -11 0 -6 22
-34 49 -62 27 -29 50 -56 51 -62 1 -5 9 -19 18 -30 9 -11 -13 8 -49 43 -36 34
-69 59 -74 55 -4 -4 -5 -2 0 6 6 10 4 12 -6 6 -12 -7 -12 -6 -1 7 10 13 8 21
-17 46 -15 17 -26 34 -22 38 3 4 0 4 -6 0 -7 -4 -13 -3 -13 3 0 5 6 11 13 14
6 3 2 4 -10 4 -21 -1 -26 -16 -9 -28 4 -4 3 -9 -3 -13 -6 -4 -21 14 -35 41
-14 26 -25 45 -26 42 0 -13 52 -122 75 -157 21 -31 23 -39 11 -48 -12 -8 -8
-18 24 -59 42 -54 43 -80 2 -43 -15 13 -21 16 -14 7 6 -9 8 -19 4 -23 -4 -4 0
-6 8 -4 8 2 14 -2 13 -9 -2 -7 18 -29 42 -49 35 -28 43 -40 34 -50 -8 -10 -4
-19 18 -38 15 -14 35 -26 43 -26 8 0 -2 11 -23 26 -21 14 -35 30 -31 36 4 7
13 3 23 -9 9 -11 36 -35 60 -52 24 -17 53 -40 65 -51 11 -12 41 -40 66 -62 43
-40 29 -35 -17 6 -25 22 -43 15 -23 -9 7 -8 9 -15 4 -15 -5 -1 20 -16 56 -35
36 -19 61 -34 57 -35 -4 0 -30 12 -58 26 -28 14 -53 23 -56 20 -3 -2 17 -16
44 -30 26 -14 44 -25 38 -25 -5 -1 -30 10 -54 24 -23 14 -44 25 -46 25 -2 0
-2 -11 -1 -24 1 -16 6 -22 15 -18 10 4 12 1 6 -8 -5 -9 -4 -11 3 -6 6 4 24 0
40 -8 16 -8 33 -12 37 -8 4 4 6 1 3 -7 -2 -8 -10 -17 -18 -19 -7 -3 -10 0 -6
7 5 7 1 9 -10 4 -12 -4 -15 -3 -10 5 4 7 5 12 2 12 -3 0 -10 -9 -16 -20 -9
-17 -8 -19 7 -13 14 5 15 3 7 -6 -16 -17 -58 4 -50 25 3 8 2 13 -3 10 -5 -3
-12 1 -15 10 -3 8 -10 12 -16 9 -6 -3 -13 1 -16 10 -4 8 -14 14 -22 13 -9 -2
-17 2 -17 9 0 7 -5 17 -12 24 -9 9 -11 8 -9 -5 1 -9 8 -22 14 -28 7 -7 12 -17
12 -24 0 -13 77 -64 128 -84 25 -10 39 -10 58 -1 31 14 47 14 39 1 -3 -5 -16
-10 -28 -10 -17 0 -19 -2 -8 -9 24 -15 -68 -1 -128 20 -69 24 -77 18 -14 -9
54 -22 101 -31 186 -34 39 -2 62 -7 70 -18 9 -12 9 -13 -3 -2 -20 17 -35 15
-20 -3 15 -18 0 -20 -20 -2 -12 10 -12 9 -1 -5 8 -11 9 -18 3 -18 -6 0 -14 5
-17 10 -3 6 -11 10 -18 10 -6 0 -2 -7 10 -15 16 -11 28 -13 46 -6 29 11 42 4
26 -16 -13 -15 -33 -18 -24 -3 3 6 -1 7 -10 3 -13 -4 -14 -8 -4 -14 16 -10
-69 -51 -86 -42 -5 3 -5 0 1 -6 9 -10 22 -9 58 8 26 11 48 19 50 18 2 -1 14 7
27 18 12 11 19 15 16 8 -4 -6 -3 -14 3 -18 7 -4 7 -12 0 -25 -19 -35 -9 -45
10 -10 l20 35 -5 -30 c-5 -28 -4 -27 12 8 10 21 22 35 27 30 5 -4 3 2 -3 14
-10 19 -9 22 4 17 8 -4 15 -1 15 4 0 6 9 10 19 9 12 -1 17 -6 13 -16 -4 -10
-1 -12 7 -6 10 6 11 3 2 -14 -8 -14 -8 -21 -1 -21 5 0 10 6 10 13 0 9 2 9 9
-1 6 -10 10 -8 14 8 l6 22 36 -22 c77 -47 141 -80 158 -80 35 0 11 22 -68 63
-50 26 -81 49 -83 61 -2 10 0 16 5 13 5 -4 10 0 10 8 0 11 -4 12 -13 4 -6 -5
-14 -6 -16 -2 -3 4 -3 2 -2 -4 2 -7 -1 -13 -6 -13 -6 0 -10 12 -10 28 0 15 -6
38 -13 52 -8 14 -13 48 -12 75 2 33 0 43 -6 30 -4 -11 -8 -45 -9 -75 -1 -37
-4 -49 -9 -35 -4 11 -6 73 -4 137 2 75 0 118 -7 118 -6 0 -10 -46 -10 -122 0
-67 -3 -119 -6 -116 -9 9 -12 37 -15 118 l-2 75 -7 -60 c-4 -33 -7 -49 -8 -34
-2 31 -19 49 -47 50 -11 0 -14 3 -7 6 14 5 17 43 3 43 -5 0 -12 8 -14 18 -4
15 -11 -41 -8 -61 1 -5 -3 -6 -9 -2 -13 8 -13 -6 0 -39 11 -30 2 -66 -11 -44
-4 7 -6 24 -3 38 3 15 2 20 -3 13 -5 -7 -9 4 -9 30 -1 31 1 37 7 22 6 -16 8
-13 6 12 -1 26 -4 30 -15 20 -11 -9 -14 -6 -12 18 1 17 1 33 0 38 -1 4 -3 10
-5 15 -1 4 -7 18 -13 32 -10 24 -11 24 -11 3 -1 -13 5 -23 12 -23 9 0 8 -3 -2
-9 -14 -9 -8 -75 9 -96 5 -6 4 -17 -2 -25 -8 -12 -9 -12 -4 2 3 12 0 18 -9 18
-8 0 -12 6 -9 14 3 8 1 17 -4 20 -5 3 -8 31 -6 63 2 40 0 53 -6 43 -5 -8 -10
-23 -10 -32 0 -9 -5 -20 -11 -23 -7 -5 -9 12 -6 54 2 33 0 58 -5 55 -4 -3 -8
-14 -8 -25 0 -11 -4 -18 -10 -14 -5 3 -7 -15 -4 -47 4 -34 2 -48 -4 -40 -5 7
-7 25 -4 40 4 26 4 26 -11 7 -15 -19 -15 -16 -10 40 3 33 9 62 12 65 3 3 5 12
5 20 -1 8 -3 24 -4 35 l-1 20 -9 -20 -9 -20 0 20 c-1 15 -3 17 -10 6 -7 -11
-9 -11 -14 0 -3 8 -6 -1 -6 -20 -1 -27 2 -31 12 -22 11 9 14 0 15 -47 1 -45
-1 -52 -8 -34 -6 13 -7 28 -4 34 3 5 -2 18 -11 28 -25 28 -15 103 28 215 19
49 32 97 29 107 -7 26 -19 13 -27 -29 -5 -27 -9 -33 -16 -22 -7 11 -9 10 -9
-5 0 -11 -2 -17 -5 -14 -3 3 -2 24 4 47 5 22 7 41 4 41 -15 0 -37 -38 -40 -68
-1 -19 -9 -40 -17 -46 -8 -6 -17 -22 -19 -36 -3 -14 -2 2 1 35 3 33 5 70 5 82
-1 13 3 20 9 17 6 -4 9 -1 6 6 -16 50 -41 -13 -51 -130 -3 -25 -3 8 0 72 2 64
8 132 14 150 6 21 6 34 -1 36 -6 2 -4 15 5 32 18 36 19 54 1 21 -11 -20 -14
-21 -19 -7 -5 12 -3 15 5 10 8 -5 9 -2 5 9 -3 10 -2 17 3 17 5 0 6 7 3 17 -4
10 -2 14 4 10 5 -3 17 17 26 47 20 62 20 66 7 66 -5 0 -9 -3 -8 -7 6 -17 -34
-103 -44 -97 -7 4 -8 2 -4 -4 4 -7 3 -19 -2 -28 -6 -11 -11 -13 -16 -5 -4 6
-2 11 4 11 6 0 9 4 6 9 -8 13 4 42 15 35 5 -3 6 2 3 10 -3 9 -1 16 6 16 6 0 9
4 6 8 -3 5 1 30 9 57 18 57 19 85 4 85 -5 0 -7 -4 -4 -10 3 -5 -1 -33 -10 -63
-18 -61 -74 -198 -75 -181 0 7 14 44 30 82 35 82 34 79 16 79 -8 0 -11 -8 -8
-20 3 -14 1 -18 -6 -13 -8 5 -10 1 -5 -10 4 -12 3 -15 -5 -10 -8 5 -10 1 -5
-10 5 -12 3 -15 -6 -9 -10 6 -11 2 -6 -15 5 -16 4 -20 -5 -15 -9 5 -10 1 -5
-15 5 -15 4 -20 -4 -16 -14 9 -14 6 4 -40 l16 -39 -20 25 c-27 33 -26 49 8
134 16 39 34 99 41 131 6 33 14 69 16 80 5 19 4 19 -9 3 -17 -22 -24 -23 -24
-3 0 8 5 11 10 8 6 -4 8 6 3 27 -5 28 0 44 34 98 30 47 36 63 23 58 -16 -5
-16 -4 -3 6 29 25 41 46 30 53 -6 4 -9 1 -8 -6 2 -6 -3 -14 -11 -17 -10 -3 -7
6 8 29 37 56 61 114 65 160 l4 44 -11 -35 c-16 -47 -36 -80 -37 -60 0 9 -6 5
-15 -10 -19 -34 -19 -17 0 21 9 16 13 34 10 39 -3 6 -2 10 4 10 6 0 8 7 5 15
-4 8 -10 12 -15 9 -10 -6 -5 24 13 83 11 37 20 123 12 123 -2 0 -9 -11 -15
-24z m-54 -366 c-9 -16 -18 -30 -21 -30 -2 0 2 14 11 30 9 17 18 30 21 30 2 0
-2 -13 -11 -30z m-98 -102 c-3 -8 -6 -5 -6 6 -1 11 2 17 5 13 3 -3 4 -12 1
-19z m-55 -150 c-9 -9 -12 -7 -12 12 0 19 3 21 12 12 9 -9 9 -15 0 -24z m5
-40 c-3 -8 -6 -5 -6 6 -1 11 2 17 5 13 3 -3 4 -12 1 -19z m95 -23 c-2 -14 -8
-25 -12 -25 -5 0 -6 -9 -3 -20 3 -11 0 -20 -6 -20 -14 0 -15 37 -1 45 6 3 10
15 10 26 0 10 4 19 9 19 4 0 6 -11 3 -25z m-105 -37 c-3 -8 -6 -5 -6 6 -1 11
2 17 5 13 3 -3 4 -12 1 -19z m-35 -20 c-8 -8 -9 -4 -5 13 4 13 8 18 11 10 2
-7 -1 -18 -6 -23z m-35 -10 c-3 -8 -6 -5 -6 6 -1 11 2 17 5 13 3 -3 4 -12 1
-19z m62 -48 c0 -9 -4 -8 -9 5 -5 11 -9 27 -9 35 0 9 4 8 9 -5 5 -11 9 -27 9
-35z m-52 8 c-3 -8 -6 -5 -6 6 -1 11 2 17 5 13 3 -3 4 -12 1 -19z m175 -166
c-7 -2 -10 -8 -6 -13 3 -5 0 -9 -5 -9 -13 0 -13 3 -5 24 3 9 11 13 17 9 8 -5
7 -8 -1 -11z m23 -43 c-4 -11 -2 -19 5 -19 6 0 8 -5 5 -11 -5 -6 -12 -4 -21 8
-13 17 -14 17 -8 -2 5 -15 4 -17 -5 -9 -9 8 -9 17 0 37 13 29 33 26 24 -4z
m-105 -69 c6 -11 8 -20 6 -20 -3 0 -10 9 -16 20 -6 11 -8 20 -6 20 3 0 10 -9
16 -20z m82 -130 c-2 -22 -6 -40 -8 -40 -2 0 -4 18 -4 40 0 22 3 40 8 40 4 0
6 -18 4 -40z m-168 -34 c1 -8 27 -37 59 -66 31 -28 55 -55 54 -60 -1 -5 23
-32 53 -60 30 -29 47 -47 38 -40 -10 7 -18 9 -18 4 0 -12 -189 186 -217 228
-29 44 -22 72 9 33 11 -14 21 -32 22 -39z m50 -128 c26 -32 43 -58 38 -58 -5
0 -27 22 -48 50 -20 27 -44 52 -51 55 -8 2 -11 10 -8 16 4 6 10 7 14 2 4 -4
28 -34 55 -65z m28 -93 c2 3 5 -2 5 -10 0 -8 -4 -15 -9 -15 -4 0 -8 5 -8 12 0
6 -3 8 -7 5 -9 -10 -44 24 -37 35 3 5 16 0 28 -11 12 -12 25 -19 28 -16z m58
-20 c13 -14 21 -25 18 -25 -2 0 -15 11 -28 25 -13 14 -21 25 -18 25 2 0 15
-11 28 -25z m-4 -37 l29 -33 -32 29 c-31 28 -38 36 -30 36 2 0 16 -15 33 -32z
m151 -91 c4 -7 -19 10 -50 37 -31 27 -57 51 -57 53 0 7 98 -76 107 -90z m270
-133 c-3 -3 -12 -4 -19 -1 -8 3 -5 6 6 6 11 1 17 -2 13 -5z m-347 -69 c11 -13
10 -14 -4 -9 -9 3 -16 10 -16 15 0 13 6 11 20 -6z m34 -21 c3 -8 2 -12 -4 -9
-6 3 -10 10 -10 16 0 14 7 11 14 -7z m121 -34 l-20 -9 20 0 c17 -1 17 -3 5
-11 -20 -13 -33 -13 -24 1 4 8 0 9 -15 4 -28 -9 -27 3 2 15 29 11 59 12 32 0z
m92 4 c-3 -3 -12 -4 -19 -1 -8 3 -5 6 6 6 11 1 17 -2 13 -5z m40 -10 c-3 -3
-12 -4 -19 -1 -8 3 -5 6 6 6 11 1 17 -2 13 -5z m-37 -28 c0 -2 -11 -6 -25 -8
-13 -3 -22 -1 -19 3 5 9 44 13 44 5z m81 -99 c-10 -9 -11 -8 -5 6 3 10 9 15
12 12 3 -3 0 -11 -7 -18z"/>
<path d="M1105 2040 c10 -11 20 -20 23 -20 3 0 -3 9 -13 20 -10 11 -20 20 -23
20 -3 0 3 -9 13 -20z"/>
<path d="M1205 1930 c10 -11 20 -20 23 -20 3 0 -3 9 -13 20 -10 11 -20 20 -23
20 -3 0 3 -9 13 -20z"/>
<path d="M3546 3337 c5 -15 -181 -164 -199 -159 -6 2 -3 -6 7 -17 22 -24 16
-27 132 65 72 57 94 70 104 61 7 -7 1 5 -15 26 -28 39 -38 46 -29 24z"/>
<path d="M1126 3214 c-4 -14 -5 -29 -2 -31 3 -3 8 7 12 21 3 15 4 29 1 32 -2
3 -8 -7 -11 -22z"/>
<path d="M3610 3215 l-25 -14 31 -1 c16 0 36 -6 43 -12 8 -7 6 -1 -4 15 -9 15
-18 27 -19 27 0 -1 -12 -7 -26 -15z"/>
<path d="M3570 3090 c-57 -33 -110 -58 -118 -55 -9 3 -8 -4 5 -25 9 -16 20
-26 23 -22 8 13 203 125 216 125 9 0 9 5 1 19 -7 10 -14 18 -17 18 -3 0 -52
-27 -110 -60z"/>
<path d="M1073 3123 c-3 -10 -8 -22 -10 -28 -3 -5 3 -1 11 9 16 20 21 36 11
36 -3 0 -8 -8 -12 -17z"/>
<path d="M1310 3109 c0 -5 5 -7 10 -4 6 3 10 8 10 11 0 2 -4 4 -10 4 -5 0 -10
-5 -10 -11z"/>
<path d="M3720 3069 c0 -8 -9 -25 -20 -37 -25 -27 -14 -28 19 -3 19 15 22 21
13 37 -9 15 -11 16 -12 3z"/>
<path d="M1054 3044 c-6 -25 -8 -26 -15 -9 -6 16 -8 17 -8 3 -2 -29 19 -31 29
-2 6 15 8 29 6 32 -3 2 -8 -8 -12 -24z"/>
<path d="M1063 2963 c-1 -19 1 -22 8 -12 11 17 12 39 2 39 -5 0 -9 -12 -10
-27z"/>
<path d="M3770 2970 c0 -8 -24 -40 -53 -71 -52 -57 -133 -99 -158 -83 -8 4 -9
-1 -4 -17 4 -13 8 -25 10 -27 1 -1 28 7 61 19 32 11 75 21 94 21 21 1 26 3 13
5 -13 2 -23 7 -23 9 0 13 74 92 82 88 11 -7 10 -1 -7 37 -8 19 -14 27 -15 19z"/>
<path d="M1006 2925 c-3 -8 -1 -15 4 -15 6 0 10 7 10 15 0 8 -2 15 -4 15 -2 0
-6 -7 -10 -15z"/>
<path d="M1258 2841 c-37 -43 -40 -60 -17 -84 l21 -22 -12 24 c-13 26 2 77 20
66 6 -4 7 1 3 12 -6 16 -5 17 13 3 18 -14 18 -14 5 3 -16 21 -13 21 -33 -2z"/>
<path d="M1069 2838 c-6 -20 -6 -39 1 -43 4 -3 10 6 12 20 3 14 1 25 -3 25 -5
0 -9 -1 -10 -2z"/>
<path d="M3778 2803 c6 -2 18 -2 25 0 6 3 1 5 -13 5 -14 0 -19 -2 -12 -5z"/>
<path d="M2345 2786 c-80 -36 -115 -128 -81 -211 17 -39 57 -67 131 -91 129
-43 155 -56 170 -84 56 -109 -69 -226 -192 -179 -42 16 -83 58 -109 114 l-23
50 0 -95 0 -95 23 28 22 28 48 -27 c56 -31 134 -36 182 -11 77 40 123 138 104
222 -17 77 -46 98 -208 146 -78 24 -112 53 -112 96 0 88 105 140 197 97 38
-19 59 -45 79 -102 13 -36 13 -35 14 47 0 82 0 84 -19 67 -18 -16 -22 -16 -50
-2 -37 19 -134 20 -176 2z"/>
<path d="M1686 2753 c-3 -21 -6 -58 -5 -83 0 -47 2 -45 29 27 22 59 56 83 116
83 l54 0 0 -279 0 -280 -42 -4 c-24 -2 13 -4 82 -4 69 0 106 2 83 4 l-43 4 0
280 0 279 54 0 c44 0 58 -4 80 -26 14 -15 31 -45 38 -68 6 -22 15 -45 20 -51
9 -11 11 63 2 118 l-7 37 -227 0 -227 0 -7 -37z"/>
<path d="M2723 2783 l37 -4 -2 -277 -3 -277 -35 -6 c-22 -4 -5 -6 45 -6 44 0
63 2 43 4 l-38 4 0 265 c0 145 2 264 4 264 2 0 46 -121 97 -270 52 -148 96
-270 99 -270 3 0 49 125 102 278 l97 277 0 -272 1 -272 -37 -4 c-21 -2 14 -4
77 -4 63 0 99 2 80 6 l-35 6 -3 277 -2 277 37 4 c21 2 1 4 -43 5 l-82 2 -73
-215 c-41 -118 -77 -215 -80 -215 -3 0 -32 73 -64 163 -32 89 -66 186 -77 215
l-19 52 -82 -2 c-45 -1 -65 -3 -44 -5z"/>
<path d="M1052 2715 c-6 -14 -8 -25 -3 -25 8 0 23 41 17 47 -1 2 -8 -8 -14
-22z"/>
<path d="M3880 2585 c0 -8 -8 -15 -17 -16 -13 0 -14 -2 -4 -6 8 -3 -33 -24
-90 -47 -57 -23 -113 -46 -124 -50 -18 -7 -16 -10 15 -21 43 -16 53 -18 46 -6
-3 5 37 26 89 47 l95 39 0 38 c0 20 -2 37 -5 37 -3 0 -5 -7 -5 -15z"/>
<path d="M3622 2550 c0 -19 2 -27 5 -17 2 9 2 25 0 35 -3 9 -5 1 -5 -18z"/>
<path d="M3673 2553 c15 -2 39 -2 55 0 15 2 2 4 -28 4 -30 0 -43 -2 -27 -4z"/>
<path d="M3631 2360 l-1 -35 97 6 c54 4 115 7 136 8 30 1 37 5 37 21 0 19 -13
26 -35 19 -5 -2 -58 -6 -117 -9 -90 -4 -108 -3 -112 10 -2 8 -4 -1 -5 -20z"/>
<path d="M901 2350 c0 -8 6 -28 14 -45 17 -39 18 -21 0 25 -7 19 -14 28 -14
20z"/>
<path d="M985 2349 c-4 -6 -5 -12 -2 -15 2 -3 7 2 10 11 7 17 1 20 -8 4z"/>
<path d="M995 2319 c-4 -6 -5 -12 -2 -15 2 -3 7 2 10 11 7 17 1 20 -8 4z"/>
<path d="M1002 2284 c-9 -19 -9 -24 0 -18 7 5 9 2 5 -9 -4 -12 -1 -15 14 -12
15 3 19 0 15 -11 -3 -8 -2 -13 2 -10 4 2 18 -11 31 -30 13 -18 27 -31 32 -28
10 6 -39 84 -53 84 -5 0 -6 5 -3 10 3 6 1 10 -5 10 -6 0 -8 5 -4 13 5 8 2 8
-9 -2 -19 -15 -23 -1 -5 17 7 7 8 12 2 12 -6 0 -16 -12 -22 -26z"/>
<path d="M1381 2274 c0 -11 3 -14 6 -6 3 7 2 16 -1 19 -3 4 -6 -2 -5 -13z"/>
<path d="M1331 2264 c0 -11 3 -14 6 -6 3 7 2 16 -1 19 -3 4 -6 -2 -5 -13z"/>
<path d="M1280 2255 c0 -8 5 -15 10 -15 6 0 10 7 10 15 0 8 -4 15 -10 15 -5 0
-10 -7 -10 -15z"/>
<path d="M3620 2243 c0 -14 2 -15 9 -5 7 12 14 11 40 -2 17 -9 31 -21 31 -27
0 -6 5 -7 11 -3 7 4 -3 16 -27 30 -47 28 -64 30 -64 7z"/>
<path d="M910 2225 c0 -5 5 -17 10 -25 5 -8 10 -10 10 -5 0 6 -5 17 -10 25 -5
8 -10 11 -10 5z"/>
<path d="M1036 2201 c-4 -5 -2 -12 3 -15 5 -4 12 -2 15 3 4 5 2 12 -3 15 -5 4
-12 2 -15 -3z"/>
<path d="M1351 2194 c0 -11 3 -14 6 -6 3 7 2 16 -1 19 -3 4 -6 -2 -5 -13z"/>
<path d="M933 2168 c11 -32 57 -98 68 -98 6 0 -6 24 -27 53 -46 63 -49 67 -41
45z"/>
<path d="M3691 2159 c-1 -17 -29 -29 -68 -29 -16 0 -23 -6 -23 -20 0 -24 -2
-24 145 0 66 11 125 20 130 20 6 1 -6 9 -25 19 -21 11 -41 16 -50 11 -8 -4
-34 -10 -57 -14 -34 -5 -42 -3 -46 11 -4 15 -5 16 -6 2z"/>
<path d="M1115 2080 c27 -27 51 -50 54 -50 3 0 -17 23 -44 50 -27 28 -51 50
-54 50 -3 0 17 -22 44 -50z"/>
<path d="M1406 1945 c-3 -9 -5 -29 -5 -43 1 -20 3 -17 9 13 8 43 7 57 -4 30z"/>
<path d="M1483 1910 c0 -25 2 -35 4 -22 2 12 2 32 0 45 -2 12 -4 2 -4 -23z"/>
<path d="M3821 1941 c-8 -5 -79 -22 -158 -37 -78 -16 -143 -31 -143 -34 0 -13
63 -28 83 -21 12 5 66 16 119 26 91 17 98 20 107 47 6 15 9 28 8 28 -1 0 -8
-4 -16 -9z"/>
<path d="M1420 1902 c0 -12 4 -22 9 -22 10 0 9 26 -2 36 -4 4 -7 -2 -7 -14z"/>
<path d="M1591 1870 c0 -3 8 -32 19 -65 17 -49 19 -53 15 -20 -6 37 -5 39 8
20 9 -11 19 -17 23 -12 4 4 2 7 -4 7 -6 0 -16 16 -22 36 -8 24 -15 32 -20 24
-6 -9 -9 -9 -13 1 -3 8 -6 12 -6 9z m26 -42 c-3 -8 -6 -5 -6 6 -1 11 2 17 5
13 3 -3 4 -12 1 -19z"/>
<path d="M1127 1790 c6 -8 9 -23 8 -32 -3 -17 12 -36 30 -37 6 -1 10 -5 10
-11 0 -5 7 -15 15 -22 12 -11 12 -11 0 7 -8 11 6 2 32 -19 26 -21 51 -35 56
-32 5 3 9 -1 9 -9 0 -20 -5 -19 -46 12 l-36 26 28 -30 c15 -16 25 -32 21 -35
-3 -4 0 -5 8 -4 29 6 46 18 44 31 -2 15 -56 62 -56 49 0 -5 -20 11 -44 35 -24
24 -48 43 -52 42 -5 -1 -9 3 -9 9 0 5 -7 15 -15 22 -12 11 -12 11 -3 -2z m56
-60 c10 -12 9 -12 -4 -2 -9 6 -18 9 -21 6 -3 -3 -9 -1 -12 4 -9 15 22 8 37 -8z"/>
<path d="M1539 1752 c-3 -20 -2 -29 4 -23 5 5 7 19 5 32 -3 20 -5 19 -9 -9z"/>
<path d="M1643 1758 c3 -10 0 -18 -7 -18 -6 0 -12 -8 -13 -19 -1 -17 1 -16 23
6 27 27 31 50 8 50 -10 0 -14 -7 -11 -19z"/>
<path d="M1194 1758 c-4 -7 -3 -10 1 -5 5 4 17 0 27 -10 10 -9 18 -11 18 -5 0
18 -37 34 -46 20z"/>
<path d="M1252 1729 c4 -9 3 -20 0 -25 -4 -5 -5 -8 -3 -6 2 1 12 -5 22 -14 28
-25 29 -1 1 31 -14 17 -23 23 -20 14z"/>
<path d="M1141 1693 c7 -12 15 -20 18 -17 3 2 -3 12 -13 22 -17 16 -18 16 -5
-5z"/>
<path d="M1605 1677 c-4 -10 -5 -21 -1 -24 10 -10 18 4 13 24 -4 17 -4 17 -12
0z"/>
<path d="M1170 1663 c0 -5 17 -21 37 -37 37 -30 37 -20 0 22 -20 22 -37 29
-37 15z"/>
<path d="M1266 1578 c3 -5 10 -6 15 -3 13 9 11 12 -6 12 -8 0 -12 -4 -9 -9z"/>
<path d="M3400 1516 l-25 -31 25 -25 25 -25 27 28 c22 22 25 29 12 34 -8 3
-20 15 -27 27 l-12 22 -25 -30z"/>
<path d="M1759 1453 c-13 -16 -12 -17 4 -4 16 13 21 21 13 21 -2 0 -10 -8 -17
-17z"/>
<path d="M1411 1386 c2 -2 15 -9 29 -15 24 -11 24 -11 6 3 -16 13 -49 24 -35
12z"/>
<path d="M1400 1365 c14 -8 30 -14 35 -14 6 0 -1 6 -15 14 -14 8 -29 14 -35
14 -5 0 1 -6 15 -14z"/>
<path d="M3128 1327 c-22 -22 -25 -29 -12 -34 8 -3 21 -17 29 -32 8 -14 14
-20 15 -13 0 7 10 23 23 35 l22 22 -25 25 -25 25 -27 -28z"/>
<path d="M1395 1340 c3 -5 16 -10 28 -9 21 0 21 1 2 9 -28 12 -37 12 -30 0z"/>
<path d="M1535 1330 c-4 -6 -12 -7 -18 -3 -7 4 -6 -1 2 -10 10 -13 17 -15 27
-6 8 6 11 15 8 20 -7 12 -11 11 -19 -1z"/>
<path d="M2144 1201 l-29 -26 27 -27 28 -27 27 27 28 27 -26 26 -26 25 -29
-25z"/>
<path d="M2815 1204 c-8 -13 -23 -24 -33 -24 -13 -1 -11 -4 7 -14 13 -7 30
-24 37 -37 10 -17 13 -19 14 -7 0 9 10 25 23 35 l23 18 -28 26 -27 27 -16 -24z"/>
<path d="M2489 1159 c-6 -11 -18 -23 -28 -27 -15 -6 -13 -10 13 -32 l31 -25
25 25 25 25 -27 27 c-27 26 -28 26 -39 7z"/>
</g>
</svg>
